<svg xmlns="http://www.w3.org/2000/svg" width="34" height="34" viewBox="0 0 34 34">
  <g id="ic_Bottom" transform="translate(-237 -476)">
    <path id="Path_8726" data-name="Path 8726" d="M0,0H34V34H0Z" transform="translate(237 476)" fill="rgba(255,255,255,0)"/>
    <g id="trousers" transform="translate(164.359 479)">
      <path id="Path_8612" data-name="Path 8612" d="M201.449,34.08l0-.5q.006-.7-.056-1.393h-1.655A2.77,2.77,0,0,0,201.449,34.08Z" transform="translate(-104.768 -29.21)" fill="#012144"/>
      <path id="Path_8613" data-name="Path 8613" d="M96.846,1.591c-.053-.244-.112-.487-.18-.729L96.571.523A.787.787,0,0,0,95.791,0H83.347a.787.787,0,0,0-.78.523l-.095.339c-.068.242-.127.485-.18.729H96.846Z" transform="translate(-0.405)" fill="#012144"/>
      <path id="Path_8614" data-name="Path 8614" d="M91.172,32.19H88.133V34.7a.825.825,0,0,1-1.629,0V32.19H83.463a4.506,4.506,0,0,1-3.651,3.336L80,56.106a.747.747,0,0,0,.8.675h4.249a.755.755,0,0,0,.8-.641l1.263-18.867a.214.214,0,0,1,.417,0L88.789,56.14a.755.755,0,0,0,.8.641h4.248a.747.747,0,0,0,.8-.675l.193-20.58A4.507,4.507,0,0,1,91.172,32.19Z" transform="translate(1.829 -29.211)" fill="#012144"/>
      <path id="Path_8615" data-name="Path 8615" d="M81.351,32.19H79.7q-.061.694-.056,1.393l0,.5A2.77,2.77,0,0,0,81.351,32.19Z" transform="translate(2 -29.211)" fill="#012144"/>
    </g>
  </g>
</svg>
