<svg xmlns="http://www.w3.org/2000/svg" width="34" height="34" viewBox="0 0 34 34">
  <g id="ic_dresses" transform="translate(-237 -476)">
    <path id="Path_8726" data-name="Path 8726" d="M0,0H34V34H0Z" transform="translate(237 476)" fill="rgba(255,255,255,0)"/>
    <g id="dress" transform="translate(178.999 478.001)">
      <g id="Group_6749" data-name="Group 6749" transform="translate(64)">
        <path id="Path_8728" data-name="Path 8728" d="M79.682,10.02c-.332-.3-.708-.645-.753-.689A9.7,9.7,0,0,1,80.46,6.153l3.053-1.221a.622.622,0,0,0,.373-.728A10.023,10.023,0,0,0,82.479.8C81.713.039,79.905,0,79.551,0a.622.622,0,0,0-.44.182c-.641.641-2.6,2.306-3.914,2.306S71.925.823,71.282.182A.622.622,0,0,0,70.842,0c-.355,0-2.163.039-2.928.8a10.023,10.023,0,0,0-1.408,3.4.622.622,0,0,0,.373.728l3.053,1.221a10.771,10.771,0,0,1,1.546,3.091,5.179,5.179,0,0,1-.768.776C68.7,11.849,64,16.132,64,27.991a.622.622,0,0,0,.622.622,19.144,19.144,0,0,1,5.145.606,23.405,23.405,0,0,0,10.859,0,19.142,19.142,0,0,1,5.145-.606.622.622,0,0,0,.622-.622C86.393,16.132,81.69,11.849,79.682,10.02Z" transform="translate(-64 0)" fill="#012144"/>
      </g>
    </g>
  </g>
</svg>
